HIERARCHY
ROOT Hips
{
	OFFSET 0.000000 0.000000 0.000000
	CHANNELS 6 Xposition Yposition Zposition Zrotation Yrotation Xrotation 
	JOINT LHipJoint
	{
		OFFSET 0.000000 0.000000 0.000000
		CHANNELS 3 Zrotation Yrotation Xrotation
		JOINT LeftUpLeg
		{
			OFFSET 1.363060 -1.794630 0.839290
			CHANNELS 3 Zrotation Yrotation Xrotation
			JOINT LeftLeg
			{
				OFFSET 2.448110 -6.726130 0.000000
				CHANNELS 3 Zrotation Yrotation Xrotation
				JOINT LeftFoot
				{
					OFFSET 2.562200 -7.039590 0.000000
					CHANNELS 3 Zrotation Yrotation Xrotation
					JOINT LeftToeBase
					{
						OFFSET 0.157640 -0.433110 2.322550
						CHANNELS 3 Zrotation Yrotation Xrotation
						End Site
						{
							OFFSET 0.000000 0.000000 0.000000
						}
					}
				}
			}
		}
	}
	JOINT RHipJoint
	{
		OFFSET 0.000000 0.000000 0.000000
		CHANNELS 3 Zrotation Yrotation Xrotation
		JOINT RightUpLeg
		{
			OFFSET -1.305520 -1.794630 0.839290
			CHANNELS 3 Zrotation Yrotation Xrotation
			JOINT RightLeg
			{
				OFFSET -2.542530 -6.985550 0.000000
				CHANNELS 3 Zrotation Yrotation Xrotation
				JOINT RightFoot
				{
					OFFSET -2.568260 -7.056230 0.000000
					CHANNELS 3 Zrotation Yrotation Xrotation
					JOINT RightToeBase
					{
						OFFSET -0.164730 -0.452590 2.363150
						CHANNELS 3 Zrotation Yrotation Xrotation
						End Site
						{
							OFFSET 0.000000 0.000000 0.000000
						}
					}
				}
			}
		}
	}
}
MOTION
Frames: 31
Frame Time: 0.008333
1.945504 17.929704 -0.998621 6.868617 64.976622 25.668290 -12.128093 5.374788 1.560409 -9.596823 15.649440 -7.360404 -2.676804 0.270881 4.759465 -0.138455 -9.883976 22.402115 -4.415700 0.000000 -69.670599 8.927558 -0.391909 8.299675 1.741971 23.205271 -47.079861 -1.104081 -2.559898 51.140573 -0.729763 -2.148785 -0.165059 -0.518600 0.000000 -36.030800
2.156565 18.018922 -0.916482 6.255916 64.526228 25.000033 -12.309495 5.501610 1.211093 -8.795858 17.276421 -6.612681 -2.669816 0.355841 4.247531 -0.016405 -11.707513 25.209380 -5.785600 0.000000 -69.304301 8.618002 -0.558922 8.548296 2.211821 24.250457 -45.962122 -0.735984 -2.313493 45.933979 -0.503288 -1.165527 0.796199 -0.449600 -0.000000 -37.010000
2.362477 18.095387 -0.833750 5.836399 64.079994 24.480527 -12.432803 5.608258 0.879569 -8.064002 18.513426 -5.815428 -2.636991 0.439206 4.063368 0.116611 -12.971007 27.457583 -6.893200 -0.000000 -68.519500 8.344283 -0.716797 8.747583 2.643853 25.144202 -44.671126 -0.342588 -2.053139 40.616073 -0.262689 -0.192075 1.941001 -0.357601 -0.000000 -38.243000
2.563581 18.158524 -0.750589 5.617480 63.634893 24.117912 -12.488976 5.699917 0.585430 -7.439869 19.276681 -4.940299 -2.571076 0.524050 4.171728 0.242697 -13.513930 29.158791 -7.567700 -0.000000 -67.333200 8.117915 -0.853945 8.889564 3.046701 25.857379 -43.237039 0.066083 -1.775986 35.282767 -0.022925 0.700661 3.312265 -0.249599 0.000000 -39.657900
2.760414 18.208071 -0.667213 5.603129 63.184333 23.915518 -12.472510 5.781064 0.346167 -6.969601 19.517392 -3.976321 -2.467485 0.613266 4.536651 0.353692 -13.252759 30.364318 -7.709000 -0.000001 -65.911999 7.950977 -0.960402 8.963413 3.442258 26.348321 -41.698346 0.472769 -1.485047 30.060806 0.201984 1.458524 4.938391 -0.132400 -0.000000 -41.276400
2.953769 18.244065 -0.583942 5.789319 62.720648 23.866607 -12.384583 5.854463 0.170497 -6.692205 19.261753 -2.949801 -2.328730 0.708670 5.163865 0.448855 -12.228264 31.105995 -7.312899 0.000000 -64.239300 7.853212 -1.031457 8.958768 3.873490 26.560123 -40.103814 0.858315 -1.191279 25.109618 0.402340 2.063582 6.799085 -0.009400 0.000000 -43.016300
3.144604 18.266897 -0.501159 6.155664 62.232277 23.948029 -12.232780 5.920901 0.060151 -6.630532 18.581649 -1.897196 -2.161691 0.810200 6.058683 0.534600 -10.563819 31.439613 -6.456500 -0.000000 -62.402800 7.828755 -1.069079 8.866741 4.401536 26.431882 -38.504320 1.206680 -0.911889 20.594688 0.573436 2.531325 8.839407 0.120300 -0.000000 -44.831200
3.333981 18.277264 -0.419392 6.655083 61.706888 24.110711 -12.033090 5.979732 0.005407 -6.773713 17.608469 -0.866687 -1.977611 0.916890 7.237489 0.619674 -8.461285 31.424808 -5.281700 -0.000000 -60.490201 7.872076 -1.082241 8.685066 5.094714 25.920740 -36.944175 1.509821 -0.664627 16.654516 0.713726 2.890467 10.972293 0.257900 0.000000 -46.661400
3.522852 18.276019 -0.339076 7.218224 61.134824 24.285834 -11.808262 6.030374 -0.013789 -7.072414 16.515887 0.090795 -1.789172 1.027968 8.716342 0.710917 -6.163089 31.130552 -3.961000 0.000000 -58.569100 7.967695 -1.084440 8.421165 6.002858 25.026533 -35.453325 1.767101 -0.461514 13.369801 0.821214 3.149889 13.094153 0.394800 0.000000 -48.421301
3.711984 18.263874 -0.260461 7.767214 60.512267 24.399957 -11.583670 6.073725 -0.023147 -7.448263 15.489200 0.929595 -1.607039 1.143585 10.499279 0.810630 -3.900288 30.637333 -2.656800 -0.000000 -56.838000 8.093683 -1.090052 8.091676 7.136957 23.802141 -34.044569 1.981492 -0.306201 10.756070 0.891603 3.279607 15.095451 0.503700 0.000000 -49.972900
3.901798 18.241386 -0.183494 8.237673 59.841357 24.395495 -11.381471 6.112292 -0.048104 -7.812430 14.691482 1.614915 -1.438360 1.264705 12.575598 0.915488 -1.853069 30.015787 -1.490900 0.000000 -55.320100 8.227841 -1.110877 7.718861 8.463725 22.341279 -32.717390 2.155627 -0.195600 8.780308 0.919465 3.219505 16.864645 0.538900 0.000000 -51.108400
4.092376 18.208669 -0.107824 8.584855 59.130552 24.238269 -11.218538 6.149057 -0.111000 -8.076020 14.251325 2.116276 -1.286632 1.392896 14.934693 1.018172 -0.141685 29.308460 -0.538899 0.000000 -53.976200 8.350897 -1.154170 7.328566 9.918343 20.763111 -31.461526 2.291069 -0.122319 7.379107 0.900287 2.901721 18.291056 0.447800 0.000000 -51.577600
4.283540 18.165655 -0.032797 8.824957 58.386653 23.952380 -11.093338 6.185734 -0.211685 -8.220469 14.155381 2.459832 -1.147462 1.526388 17.483275 1.119440 1.286954 28.621988 0.228200 0.000001 -53.257800 8.457155 -1.218997 6.932946 11.413477 19.144575 -30.276760 2.387164 -0.081208 6.520392 0.838453 2.338087 19.239277 0.217200 -0.000000 -51.107200
4.474982 18.111927 0.042138 8.946938 57.625229 23.542665 -11.011887 6.222018 -0.363877 -8.178990 14.460502 2.613190 -1.021068 1.666463 20.243493 1.210604 2.396352 27.906816 0.795600 0.000000 -52.639000 8.536002 -1.302193 6.559404 12.869849 17.609984 -29.149990 2.446558 -0.062570 6.124896 0.735283 1.523459 19.619869 -0.159700 0.000000 -49.517900
4.666391 18.047159 0.117603 8.995140 56.856028 23.063778 -10.962579 6.255317 -0.556107 -7.974832 15.076903 2.608101 -0.900555 1.809926 23.140179 1.297163 3.315148 27.227090 1.239600 0.000001 -52.459700 8.591102 -1.393804 6.215601 14.211042 16.212209 -28.088820 2.471849 -0.062255 6.170008 0.602003 0.565797 19.331564 -0.618900 0.000000 -46.697500
4.857420 17.970895 0.194014 8.993055 56.092032 22.553315 -10.939151 6.281823 -0.783112 -7.610918 15.951886 2.443488 -0.782286 1.955330 26.162899 1.380240 4.111536 26.565347 1.601500 0.000000 -52.517700 8.623570 -1.483933 5.914946 15.386395 15.014796 -27.101893 2.469449 -0.075106 6.617604 0.447650 -0.428968 18.323675 -1.082500 0.000000 -42.648499
5.047851 17.882867 0.271593 8.961740 55.344840 22.047724 -10.935139 6.297106 -1.034726 -7.105922 17.013581 2.118120 -0.662273 2.100816 29.300721 1.463406 4.862479 25.917999 1.924500 -0.000000 -52.735200 8.636132 -1.563251 5.666262 16.371168 14.056727 -26.210188 2.448166 -0.097937 7.445485 0.281445 -1.343380 16.576510 -1.462800 -0.000001 -37.433100
5.237572 17.783012 0.350351 8.922129 54.622862 21.578639 -10.943428 6.297475 -1.297638 -6.494558 18.178153 1.639348 -0.537550 2.244729 32.536983 1.550617 5.640401 25.280702 2.247600 0.000000 -52.926600 8.633711 -1.624298 5.470239 17.163361 13.341811 -25.440921 2.418177 -0.130007 8.647641 0.112197 -2.064701 14.097141 -1.682800 0.000000 -31.126100
5.426560 17.671510 0.430114 8.879419 53.933775 21.165657 -10.961511 6.279664 -1.558140 -5.805804 19.375166 0.997376 -0.405888 2.385645 35.867002 1.645878 6.492520 24.665857 2.595299 -0.000000 -53.143901 8.618992 -1.663108 5.326385 17.784009 12.858524 -24.831468 2.391262 -0.171301 10.220934 -0.054607 -2.518194 10.919105 -1.702000 0.000000 -23.733900
5.614784 17.548888 0.510565 8.839584 53.281040 20.824616 -10.986923 6.242333 -1.801585 -5.078702 20.534562 0.185962 -0.266842 2.523018 39.282583 1.751337 7.445570 24.075536 2.981100 0.000000 -53.238300 8.596146 -1.678812 5.228207 18.263371 12.566880 -24.421035 2.378372 -0.223911 12.167045 -0.215511 -2.657880 7.103550 -1.517499 0.000000 -15.258600
5.802233 17.416037 0.591284 8.803786 52.662767 20.567197 -11.018631 6.185788 -2.014659 -4.355378 21.595846 -0.805882 -0.121198 2.657206 42.774243 1.867740 8.503987 23.515430 3.407699 -0.000000 -53.088000 8.570671 -1.674590 5.169782 18.629673 12.423683 -24.244219 2.385351 -0.292584 14.468571 -0.370856 -2.493574 2.805001 -1.176000 -0.000001 -6.203900
5.988849 17.274353 0.671813 8.769519 52.072685 20.399229 -11.056176 6.111517 -2.184912 -3.680282 22.502465 -1.985326 0.029915 2.788663 46.320699 1.995394 9.657997 23.010120 3.874000 0.000000 -52.739700 8.547746 -1.655908 5.144231 18.910580 12.382443 -24.325008 2.415145 -0.382838 17.098348 -0.521529 -2.060845 -1.803356 179.251000 0.000000 -2.947800
6.174472 17.125602 0.751711 8.727841 51.499846 20.323245 -11.100569 6.021847 -2.304033 -3.090471 23.213794 -3.364920 0.184615 2.918820 49.902697 2.132014 10.872648 22.575402 4.368101 0.000000 -52.209400 8.532228 -1.631185 5.150806 19.125991 12.421277 -24.672629 2.461970 -0.501901 20.005734 -0.668830 -1.437770 -6.463775 179.677100 0.000000 -11.088400
6.358846 16.972020 0.830481 8.664365 50.932015 20.332773 -11.153083 5.918978 -2.366630 -2.612125 23.699526 -4.950918 0.341643 3.049183 53.497461 2.273433 12.095993 22.224438 4.871600 0.000000 -51.540700 8.525536 -1.607597 5.188207 19.299124 12.522315 -25.278737 2.519618 -0.652903 23.137277 -0.813539 -0.694565 -11.000880 -179.960300 0.000001 -17.691400
6.541589 16.816087 0.907677 8.561991 50.358367 20.416497 -11.214999 5.803969 -2.370922 -2.257537 23.939740 -6.743050 0.500565 3.180940 57.079418 2.414142 13.265991 21.967654 5.361800 0.000000 -50.847500 8.525999 -1.590059 5.256491 19.451273 12.681271 -26.115246 2.580078 -0.833823 26.421645 -0.959188 0.092901 -15.293081 -179.695400 0.000000 -22.667299
6.722206 16.660511 0.982845 8.400100 49.768271 20.555744 -11.287576 5.676342 -2.319538 -2.021037 23.926221 -8.730310 0.661783 3.315233 60.621965 2.547282 14.313541 21.801587 5.810500 -0.000000 -50.200100 8.528948 -1.581135 5.356268 19.603859 12.907809 -27.132657 2.633856 -1.038268 29.767909 -1.111561 0.841995 -19.250032 -179.531600 -0.000000 -26.120600
6.900257 16.508014 1.055757 8.164120 49.156778 20.739023 -11.371602 5.534504 -2.215190 -1.889089 23.655354 -10.904837 0.826894 3.452546 64.103704 2.665126 15.169891 21.697165 6.182900 0.000000 -49.615500 8.528282 -1.581701 5.489746 19.772189 13.216481 -28.280545 2.671903 -1.256786 33.080453 -1.276045 1.478293 -22.815374 -179.445400 0.000000 -28.309000
7.075104 16.361368 1.125976 7.836978 48.516766 20.938405 -11.467572 5.375135 -2.067092 -1.824632 23.138141 -13.229311 0.998033 3.593458 67.493109 2.761096 15.777018 21.623028 6.445500 0.000000 -49.123300 8.517114 -1.589680 5.652082 19.972471 13.619265 -29.481582 2.688157 -1.478703 36.261016 -1.455157 1.944070 -25.955691 -179.397700 -0.000000 -29.505100
7.246133 16.223143 1.193311 7.417905 47.845402 21.137913 -11.573858 5.194921 -1.882837 -1.794283 22.385226 -15.661404 1.177433 3.736586 70.753199 2.831337 16.104367 21.553094 6.577700 0.000000 -48.918000 8.491932 -1.601609 5.835086 20.206920 14.113654 -30.665678 2.680630 -1.693620 39.227052 -1.646648 2.215256 -28.666093 -179.350099 -0.000000 -30.006400
7.413052 16.095590 1.257948 6.915380 47.145775 21.333103 -11.688690 4.991599 -1.668830 -1.764323 21.413932 -18.170951 1.368331 3.881290 73.861360 2.870284 16.123174 21.393167 6.544900 0.000001 -48.670001 8.450041 -1.614548 6.032469 20.469687 14.692929 -31.779910 2.651786 -1.892101 41.910609 -1.845285 2.295910 -30.960559 -179.274900 0.000000 -30.087100
7.575577 15.980619 1.320119 6.344225 46.420324 21.517454 -11.809014 4.763310 -1.432135 -1.701035 20.245868 -20.711454 1.572232 4.025141 76.780108 2.877086 15.845467 21.087855 6.342500 0.000000 -48.381900 8.391899 -1.625096 6.232719 20.748663 15.338094 -32.768438 2.608135 -2.066726 44.258860 -2.042510 2.221308 -32.867188 -179.163401 -0.000000 -29.978200
